# File created by Blade
# Date/Time:  Tue Sep 30 19:29:42 2014
#---------------------------------------------------------
:version 1.10
:name HOM
:units
  mass 1.0
  length 1.000000
  angle deg
:documentation
     Acclaim Skeleton File
:root
   axis xyz
   order TX TY TZ RX RY RZ
   position 0.000000 0.000000 0.000000
   orientation 0 0 0
:bonedata
   begin
      id 1
      name RightUpLeg_dum
      direction -1.000000 0.000000 0.000000
      length 3.766986
      axis 0.0 0.0 0.0 xyz
   end
   begin
      id 2
      name LeftUpLeg_dum
      direction 1.000000 0.000000 0.000000
      length 3.766986
      axis 0.0 0.0 0.0 xyz
   end
   begin
      id 3
      name Spine_dum
      direction 0.000000 1.000000 0.000000
      length 7.779697
      axis 0.0 0.0 0.0 xyz
   end
   begin
      id 4
      name RightUpLeg
      direction 0.000000 -1.000000 0.000000
      length 18.017682
      axis 0.0 0.0 0.0 xyz
      dof rx ry rz
   end
   begin
      id 5
      name RightLeg
      direction 0.000000 -1.000000 0.000000
      length 16.881075
      axis 0.0 0.0 0.0 xyz
      dof rx ry rz
   end
   begin
      id 6
      name RightFoot
      direction 0.000000 -0.258819 0.965926
      length 5.770812
      axis 15.0 0.0 0.0 xyz
      dof rx ry rz
   end
   begin
      id 7
      name RightToeBase
      direction 0.000000 0.000000 1.000000
      length 2.952750
      axis 0.0 0.0 0.0 xyz
      dof rx ry rz
   end
   begin
      id 8
      name LeftUpLeg
      direction 0.000000 -1.000000 0.000000
      length 18.017682
      axis 0.0 0.0 0.0 xyz
      dof rx ry rz
   end
   begin
      id 9
      name LeftLeg
      direction 0.000000 -1.000000 0.000000
      length 16.881075
      axis 0.0 0.0 0.0 xyz
      dof rx ry rz
   end
   begin
      id 10
      name LeftFoot
      direction 0.000000 -0.258819 0.965926
      length 5.770812
      axis 15.0 0.0 0.0 xyz
      dof rx ry rz
   end
   begin
      id 11
      name LeftToeBase
      direction 0.000000 0.000000 1.000000
      length 2.952750
      axis 0.0 0.0 0.0 xyz
      dof rx ry rz
   end
   begin
      id 12
      name Spine
      direction 0.000000 1.000000 0.000000
      length 0.000000
      axis 0.0 0.0 0.0 xyz
      dof rx ry rz
   end
   begin
      id 13
      name Spine_dum1
      direction 0.000000 1.000000 0.000000
      length 10.941760
      axis 0.0 0.0 0.0 xyz
   end
   begin
      id 14
      name Spine_dum2
      direction 0.000000 1.000000 0.000000
      length 10.941760
      axis 0.0 0.0 0.0 xyz
   end
   begin
      id 15
      name Spine_dum3
      direction 0.000000 1.000000 0.000000
      length 16.646042
      axis 0.0 0.0 0.0 xyz
   end
   begin
      id 16
      name RightShoulder
      direction -1.000000 0.000000 0.000000
      length 7.708937
      axis 0.0 0.0 90.0 xyz
      dof rx ry rz
   end
   begin
      id 17
      name RightArm
      direction -1.000000 0.000000 0.000000
      length 11.521345
      axis 0.0 0.0 90.0 xyz
      dof rx ry rz
   end
   begin
      id 18
      name RightForeArm
      direction -1.000000 0.000000 0.000000
      length 10.175898
      axis 0.0 0.0 90.0 xyz
      dof ry rz rx
   end
   begin
      id 19
      name RightHand
      direction -1.000000 0.000000 0.000000
      length 0.000000
      axis 0.0 0.0 90.0 xyz
      dof rx ry rz
   end
   begin
      id 20
      name RightHand_dum1
      direction -1.000000 0.000000 0.000000
      length 3.937000
      axis 0.0 0.0 90.0 xyz
   end
   begin
      id 21
      name RightHand_dum2
      direction 0.000000 0.000000 0.000000
      length 0.000000
      axis 0.0 0.0 90.0 xyz
   end
   begin
      id 22
      name RightHandThumb1
      direction 0.000000 0.000000 1.000000
      length 3.937000
      axis 0.0 0.0 90.0 xyz
      dof rx rz ry
   end
   begin
      id 23
      name LeftShoulder
      direction 1.000000 0.000000 0.000000
      length 7.708937
      axis 0.0 0.0 -90.0 xyz
      dof rx ry rz
   end
   begin
      id 24
      name LeftArm
      direction 1.000000 0.000000 0.000000
      length 11.521345
      axis 0.0 0.0 -90.0 xyz
      dof rx ry rz
   end
   begin
      id 25
      name LeftForeArm
      direction 1.000000 0.000000 0.000000
      length 10.175898
      axis 0.0 0.0 -90.0 xyz
      dof ry rz rx
   end
   begin
      id 26
      name LeftHand
      direction 1.000000 0.000000 0.000000
      length 0.000000
      axis 0.0 0.0 -90.0 xyz
      dof rx ry rz
   end
   begin
      id 27
      name LeftHand_dum1
      direction 1.000000 0.000000 0.000000
      length 3.937000
      axis 0.0 0.0 -90.0 xyz
   end
   begin
      id 28
      name LeftHand_dum2
      direction 0.000000 0.000000 0.000000
      length 0.000000
      axis 0.0 0.0 -90.0 xyz
   end
   begin
      id 29
      name LeftHandThumb1
      direction 0.000000 0.000000 1.000000
      length 3.937000
      axis 0.0 0.0 -90.0 xyz
      dof rx rz ry
   end
   begin
      id 30
      name Head
      direction 0.000000 1.000000 0.000000
      length 4.527550
      axis 0.0 0.0 0.0 xyz
      dof rx ry rz
   end
:hierarchy
   begin
      root RightUpLeg_dum LeftUpLeg_dum Spine_dum
      RightUpLeg_dum RightUpLeg
      LeftUpLeg_dum LeftUpLeg
      Spine_dum Spine
      RightUpLeg RightLeg
      RightLeg RightFoot
      RightFoot RightToeBase
      LeftUpLeg LeftLeg
      LeftLeg LeftFoot
      LeftFoot LeftToeBase
      Spine Spine_dum1 Spine_dum2 Spine_dum3
      Spine_dum1 RightShoulder
      Spine_dum2 LeftShoulder
      Spine_dum3 Head
      RightShoulder RightArm
      RightArm RightForeArm
      RightForeArm RightHand
      RightHand RightHand_dum1 RightHand_dum2
      RightHand_dum2 RightHandThumb1
      LeftShoulder LeftArm
      LeftArm LeftForeArm
      LeftForeArm LeftHand
      LeftHand LeftHand_dum1 LeftHand_dum2
      LeftHand_dum2 LeftHandThumb1
   end

# File created by Blade
# Date/Time:  Mon Sep 22 17:38:34 2014
# Frame Rate: 120.000 fps
#------------------------------------------------------
:FULLY-SPECIFIED
:DEGREES
141
root 1.332830 37.307590 4.645905 -13.384348 -5.445080 6.124945
RightUpLeg 17.954337 -3.221098 -0.803824
RightLeg -3.737770 -0.000000 0.000000
RightFoot -11.395059 -19.048530 9.820400
RightToeBase 12.765435 -0.000000 -0.000000
LeftUpLeg -38.561225 2.865551 -3.887402
LeftLeg 68.529480 -0.000000 -0.000000
LeftFoot 0.133447 17.479954 -28.415117
LeftToeBase 0.155369 -0.000000 -0.000000
Spine 22.403906 -5.396083 -2.426585
RightShoulder 0.668327 -28.368245 -11.595026
RightArm 22.457487 -19.268653 60.897196
RightForeArm 3.566203 -0.000000 48.155112
RightHand -0.664686 -0.000000 -1.755325
RightHandThumb1 -24.326973 -0.000000 -32.862282
LeftShoulder -18.390182 28.994521 6.965979
LeftArm 62.684444 -33.169279 -62.125693
LeftForeArm 36.195694 -0.000000 49.841123
LeftHand -16.599184 -0.000000 -30.942722
LeftHandThumb1 -26.253704 0.000000 33.147579
Head 15.251470 20.394130 -3.081046
142
root 1.322484 37.303082 4.661545 -13.405028 -5.519541 6.100884
RightUpLeg 18.011823 -3.259750 -0.780524
RightLeg -3.771920 -0.000000 0.000000
RightFoot -11.395629 -18.957448 9.820963
RightToeBase 12.814314 -0.000000 -0.000000
LeftUpLeg -38.351553 2.911554 -3.787736
LeftLeg 68.297660 -0.000000 -0.000000
LeftFoot 0.124701 17.586639 -28.383710
LeftToeBase 0.022496 -0.000000 -0.000000
Spine 22.357658 -5.409838 -2.379361
RightShoulder 0.614634 -28.360232 -11.556824
RightArm 22.476654 -19.327488 60.848006
RightForeArm 3.497563 -0.000000 47.981826
RightHand -0.769670 0.000000 -1.617840
RightHandThumb1 -24.326973 -0.000000 -32.862282
LeftShoulder -18.416215 29.012307 6.925074
LeftArm 62.518129 -33.131463 -61.875121
LeftForeArm 35.943013 -0.000000 49.956731
LeftHand -16.726161 0.000000 -31.075709
LeftHandThumb1 -26.253704 0.000000 33.147579
Head 15.365246 20.519613 -3.126254
143
root 1.313072 37.299136 4.676527 -13.402594 -5.583702 6.077988
RightUpLeg 18.047051 -3.284117 -0.751605
RightLeg -3.811136 -0.000000 0.000000
RightFoot -11.373492 -18.910998 9.785557
RightToeBase 12.793064 -0.000000 -0.000000
LeftUpLeg -38.165413 2.917323 -3.686114
LeftLeg 68.076362 -0.000000 -0.000000
LeftFoot 0.034007 17.681102 -28.509082
LeftToeBase 0.098094 -0.000000 -0.000000
Spine 22.271165 -5.425310 -2.330023
RightShoulder 0.571143 -28.382389 -11.513481
RightArm 22.459272 -19.354551 60.802313
RightForeArm 3.523503 -0.000000 47.835516
RightHand -0.722216 -0.000000 -1.751267
RightHandThumb1 -24.326973 -0.000000 -32.862282
LeftShoulder -18.450746 29.063931 6.857380
LeftArm 62.447902 -33.120275 -61.697841
LeftForeArm 35.678352 -0.000000 49.989337
LeftHand -16.714995 -0.000000 -31.117403
LeftHandThumb1 -26.253704 0.000000 33.147579
Head 15.540568 20.597046 -3.090067
144
root 1.304085 37.294998 4.690408 -13.397119 -5.661293 6.064375
RightUpLeg 18.071566 -3.260950 -0.719985
RightLeg -3.837681 -0.000000 0.000000
RightFoot -11.355133 -18.924920 9.711508
RightToeBase 12.788139 -0.000000 -0.000000
LeftUpLeg -37.983657 2.953599 -3.597141
LeftLeg 67.862187 -0.000000 -0.000000
LeftFoot 0.024167 17.807391 -28.547705
LeftToeBase 0.214040 -0.000000 -0.000000
Spine 22.192497 -5.435463 -2.297954
RightShoulder 0.520849 -28.418636 -11.457143
RightArm 22.448908 -19.321100 60.792066
RightForeArm 3.452174 -0.000000 47.707630
RightHand -0.748168 -0.000000 -1.855361
RightHandThumb1 -24.326973 -0.000000 -32.862282
LeftShoulder -18.534794 29.122554 6.795366
LeftArm 62.446345 -33.100436 -61.636836
LeftForeArm 35.387981 -0.000000 49.979054
LeftHand -16.379521 -0.000000 -31.342877
LeftHandThumb1 -26.253704 0.000000 33.147579
Head 15.653826 20.661274 -3.066139
